<svg xmlns="http://www.w3.org/2000/svg" xmlns:xlink="http://www.w3.org/1999/xlink" width="500" zoomAndPan="magnify" viewBox="0 0 375 337.499995" height="450" preserveAspectRatio="xMidYMid meet" version="1.0"><defs><clipPath id="c2e95af02b"><path d="M 156.28125 157.246094 L 356 157.246094 L 356 317.539062 L 156.28125 317.539062 Z M 156.28125 157.246094 " clip-rule="nonzero"/></clipPath><clipPath id="25efd2beed"><path d="M 156.28125 157.246094 L 356 157.246094 L 356 317.539062 L 156.28125 317.539062 Z M 156.28125 157.246094 " clip-rule="nonzero"/></clipPath><clipPath id="010ce2dcf2"><path d="M 19 157.246094 L 179 157.246094 L 179 317.539062 L 19 317.539062 Z M 19 157.246094 " clip-rule="nonzero"/></clipPath><clipPath id="38d8985cd3"><path d="M 19 157.246094 L 179.289062 157.246094 L 179.289062 317.539062 L 19 317.539062 Z M 19 157.246094 " clip-rule="nonzero"/></clipPath><clipPath id="94cfb77f9c"><path d="M 19 20 L 222.953125 20 L 222.953125 162 L 19 162 Z M 19 20 " clip-rule="nonzero"/></clipPath><clipPath id="7406281c88"><path d="M 19 19.25 L 222.953125 19.25 L 222.953125 162.304688 L 19 162.304688 Z M 19 19.25 " clip-rule="nonzero"/></clipPath><clipPath id="7d82ec2356"><path d="M 212.679688 19.25 L 355.734375 19.25 L 355.734375 162 L 212.679688 162 Z M 212.679688 19.25 " clip-rule="nonzero"/></clipPath><clipPath id="c0954c9fb1"><path d="M 212.679688 19.25 L 355.734375 19.25 L 355.734375 162.304688 L 212.679688 162.304688 Z M 212.679688 19.25 " clip-rule="nonzero"/></clipPath></defs><g clip-path="url(#c2e95af02b)"><path fill="#f6f4e7" d="M 156.703125 157.910156 L 355.574219 157.910156 L 355.574219 317.058594 L 156.703125 317.058594 Z M 156.703125 157.910156 " fill-opacity="1" fill-rule="nonzero"/></g><path fill="#85c8ff" d="M 354.589844 158.707031 L 354.589844 254.164062 L 342.710938 260.78125 L 305.296875 280.617188 L 300.738281 274.839844 L 289.988281 262.285156 C 289.988281 262.285156 278.261719 249.765625 277.359375 249.089844 C 276.457031 248.414062 270.984375 244.363281 270.984375 244.363281 L 259.539062 241.546875 L 255.617188 241.703125 L 259.988281 232.960938 L 263.910156 210.746094 L 262.582031 199.355469 L 263.910156 195.96875 L 262.394531 190.933594 L 253.371094 180.707031 L 246.605469 176.453125 L 238.636719 172.136719 L 229.914062 170.234375 L 215.625 171.574219 L 205.894531 175.621094 L 199.757812 179.875 L 190.550781 190.101562 L 183.222656 204.257812 L 183.222656 213.039062 L 185.101562 219.917969 L 176.984375 219.917969 L 169.519531 226.238281 C 169.519531 226.238281 167.332031 229.578125 167.335938 232.136719 C 167.335938 234.691406 168.695312 241.703125 168.695312 241.703125 L 157.6875 250.78125 L 157.6875 158.707031 Z M 354.589844 158.707031 " fill-opacity="1" fill-rule="nonzero"/><g clip-path="url(#25efd2beed)"><path fill="#000000" d="M 249.179688 237.199219 C 248.234375 237.519531 247.238281 237.679688 246.226562 237.679688 C 244.492188 237.679688 242.71875 237.214844 241.09375 236.304688 C 240.417969 235.929688 240.179688 235.078125 240.554688 234.402344 C 240.929688 233.730469 241.78125 233.488281 242.457031 233.867188 C 244.34375 234.917969 246.464844 235.171875 248.277344 234.554688 C 249.445312 234.15625 250.359375 233.414062 250.722656 232.570312 C 251.253906 231.335938 250.898438 229.148438 249.398438 227.769531 C 248.558594 226.996094 247.582031 226.707031 246.914062 226.597656 C 246.546875 226.539062 246.214844 226.335938 245.996094 226.035156 C 245.78125 225.734375 245.691406 225.355469 245.753906 224.988281 L 247.785156 212.808594 C 247.910156 212.046875 248.632812 211.53125 249.390625 211.660156 C 250.152344 211.785156 250.667969 212.507812 250.542969 213.265625 L 248.722656 224.183594 C 249.542969 224.46875 250.453125 224.9375 251.292969 225.710938 C 253.507812 227.75 254.367188 231.171875 253.292969 233.671875 C 252.613281 235.257812 251.113281 236.542969 249.179688 237.199219 Z M 234.503906 209.03125 C 233.164062 208.753906 231.792969 208.675781 230.433594 208.800781 C 229.105469 208.921875 227.804688 209.230469 226.566406 209.726562 C 225.851562 210.011719 225.5 210.824219 225.785156 211.542969 C 226.003906 212.089844 226.527344 212.421875 227.085938 212.421875 C 227.257812 212.421875 227.433594 212.390625 227.601562 212.324219 C 228.589844 211.929688 229.628906 211.679688 230.6875 211.585938 C 231.773438 211.484375 232.867188 211.546875 233.933594 211.769531 C 234.691406 211.925781 235.429688 211.441406 235.585938 210.683594 C 235.746094 209.929688 235.257812 209.1875 234.503906 209.03125 Z M 252.855469 210.886719 C 253.921875 210.664062 255.015625 210.601562 256.105469 210.703125 C 257.164062 210.796875 258.199219 211.046875 259.1875 211.441406 C 259.359375 211.507812 259.53125 211.539062 259.703125 211.539062 C 260.261719 211.539062 260.785156 211.207031 261.003906 210.65625 C 261.289062 209.941406 260.9375 209.128906 260.222656 208.84375 C 258.984375 208.347656 257.683594 208.039062 256.355469 207.917969 C 254.996094 207.792969 253.625 207.871094 252.285156 208.148438 C 251.53125 208.304688 251.046875 209.046875 251.203125 209.800781 C 251.359375 210.558594 252.097656 211.042969 252.855469 210.886719 Z M 231.710938 217.746094 C 230.355469 217.746094 229.253906 218.847656 229.253906 220.207031 C 229.253906 221.5625 230.355469 222.664062 231.710938 222.664062 C 233.066406 222.664062 234.171875 221.5625 234.171875 220.207031 C 234.171875 218.847656 233.066406 217.746094 231.710938 217.746094 Z M 256.605469 217.746094 C 255.25 217.746094 254.148438 218.847656 254.148438 220.207031 C 254.148438 221.5625 255.25 222.664062 256.605469 222.664062 C 257.960938 222.664062 259.066406 221.5625 259.066406 220.207031 C 259.066406 218.847656 257.960938 217.746094 256.605469 217.746094 Z M 242.667969 245.132812 C 242.394531 245.253906 241.421875 245.621094 240.3125 245.21875 C 239.203125 244.816406 238.691406 243.910156 238.558594 243.640625 C 238.21875 242.949219 237.382812 242.660156 236.6875 243 C 235.996094 243.339844 235.707031 244.175781 236.046875 244.871094 C 236.363281 245.519531 237.320312 247.109375 239.359375 247.847656 C 240.074219 248.105469 240.75 248.199219 241.359375 248.199219 C 242.492188 248.199219 243.382812 247.875 243.8125 247.683594 C 244.515625 247.367188 244.832031 246.539062 244.515625 245.835938 C 244.199219 245.128906 243.371094 244.816406 242.667969 245.132812 Z M 200.804688 211.125 C 200.234375 211.425781 198.339844 212.585938 197.9375 214.945312 C 197.777344 215.863281 197.882812 216.824219 198.238281 217.726562 C 198.457031 218.273438 198.984375 218.609375 199.539062 218.609375 C 199.710938 218.609375 199.886719 218.578125 200.054688 218.511719 C 200.773438 218.226562 201.125 217.414062 200.839844 216.695312 C 200.722656 216.402344 200.601562 215.941406 200.691406 215.417969 C 200.886719 214.269531 201.984375 213.664062 202.109375 213.597656 C 202.789062 213.238281 203.054688 212.394531 202.695312 211.710938 C 202.332031 211.027344 201.488281 210.761719 200.804688 211.125 Z M 195.105469 280.234375 C 203.617188 285.640625 212.382812 287.050781 219.210938 287.050781 C 222.394531 287.050781 225.160156 286.742188 227.277344 286.390625 C 228.039062 286.265625 228.554688 285.546875 228.429688 284.785156 C 228.300781 284.023438 227.582031 283.507812 226.820312 283.632812 C 220.554688 284.671875 208.300781 285.304688 196.605469 277.875 C 191.761719 274.796875 187.648438 270.734375 184.386719 265.800781 C 183.960938 265.15625 183.09375 264.980469 182.449219 265.40625 C 181.804688 265.832031 181.628906 266.699219 182.054688 267.34375 C 185.535156 272.605469 189.925781 276.945312 195.105469 280.234375 Z M 346.199219 293.921875 C 346.199219 300.390625 340.933594 306.210938 334.460938 306.898438 C 334.027344 306.945312 333.601562 306.964844 333.179688 306.964844 C 330.449219 306.964844 327.914062 306.019531 325.9375 304.242188 C 323.671875 302.203125 322.425781 299.324219 322.425781 296.132812 C 322.425781 289.652344 327.691406 283.832031 334.167969 283.15625 C 337.382812 282.824219 340.410156 283.769531 342.691406 285.824219 C 344.953125 287.863281 346.199219 290.738281 346.199219 293.921875 Z M 343.402344 293.921875 C 343.402344 291.542969 342.484375 289.402344 340.820312 287.902344 C 339.359375 286.585938 337.46875 285.886719 335.417969 285.886719 C 335.101562 285.886719 334.78125 285.90625 334.457031 285.9375 C 329.363281 286.46875 325.222656 291.042969 325.222656 296.132812 C 325.222656 298.519531 326.140625 300.664062 327.808594 302.164062 C 329.492188 303.679688 331.75 304.371094 334.164062 304.117188 C 339.257812 303.578125 343.402344 299.003906 343.402344 293.921875 Z M 355.988281 158.707031 L 355.988281 316.285156 C 355.988281 317.058594 355.363281 317.683594 354.589844 317.683594 L 290.570312 317.683594 C 290.5625 317.683594 290.558594 317.683594 290.554688 317.683594 C 290.550781 317.683594 290.550781 317.683594 290.546875 317.683594 C 290.542969 317.683594 290.535156 317.683594 290.53125 317.683594 L 276.152344 317.683594 C 276.144531 317.683594 276.136719 317.6875 276.128906 317.6875 C 276.121094 317.6875 276.113281 317.683594 276.105469 317.683594 L 181.058594 317.683594 C 181.054688 317.683594 181.050781 317.683594 181.042969 317.683594 C 181.039062 317.683594 181.035156 317.683594 181.03125 317.683594 L 157.6875 317.683594 C 156.914062 317.683594 156.289062 317.058594 156.289062 316.285156 L 156.289062 158.707031 C 156.289062 157.9375 156.914062 157.3125 157.6875 157.3125 L 354.589844 157.3125 C 355.363281 157.3125 355.988281 157.9375 355.988281 158.707031 Z M 159.085938 160.105469 L 159.085938 248.203125 C 161.007812 245.878906 163.675781 243.574219 167.324219 242.027344 C 164.371094 234.246094 166.257812 225.695312 172.074219 221.25 C 175.691406 218.488281 179.8125 218.066406 182.699219 218.21875 C 182.398438 217.480469 182.148438 216.71875 181.945312 215.945312 C 181.898438 215.765625 181.855469 215.585938 181.816406 215.410156 C 181.273438 213.03125 181.253906 210.523438 181.757812 207.953125 C 186.03125 186.085938 203.851562 169.644531 224.128906 168.863281 C 246.769531 167.988281 260.652344 186.816406 262.3125 189.191406 C 264.851562 192.335938 265.789062 195.132812 265.089844 197.496094 C 264.921875 198.054688 264.667969 198.582031 264.332031 199.078125 C 265.878906 211.523438 264.464844 223.835938 260.222656 234.726562 C 259.550781 236.453125 258.789062 238.300781 257.925781 240.160156 C 261.019531 240.074219 264.035156 240.429688 266.910156 241.242188 C 273.328125 243.050781 278.28125 247.039062 289 259.023438 C 291.300781 261.59375 299.324219 270.648438 305.976562 279.128906 C 306.070312 279.25 306.136719 279.386719 306.1875 279.523438 L 353.191406 253.34375 L 353.191406 160.105469 Z M 232.585938 258.085938 C 232.53125 258.085938 232.472656 258.089844 232.417969 258.089844 C 230.664062 258.089844 229.191406 257.945312 228.160156 257.800781 C 228.109375 257.792969 228.0625 257.78125 228.011719 257.769531 L 219.566406 255.644531 C 210.625 253.398438 203.355469 247.078125 200.113281 238.734375 C 199.285156 236.609375 198.753906 234.4375 198.515625 232.308594 L 192.773438 244.316406 C 196.292969 248.082031 200.261719 251.316406 204.621094 253.945312 C 213.667969 259.398438 222.84375 261.417969 230.597656 261.882812 C 230.601562 261.875 230.601562 261.867188 230.605469 261.859375 Z M 233.699219 261.988281 C 235.226562 262.003906 236.683594 261.957031 238.054688 261.878906 C 237.863281 261.632812 237.644531 261.390625 237.378906 261.160156 C 236.492188 260.386719 235.503906 260.066406 234.773438 259.933594 Z M 247.585938 250.214844 C 252.289062 246.332031 255.417969 239.355469 257.617188 233.710938 C 261.464844 223.835938 262.890625 212.722656 261.78125 201.417969 C 257.457031 204.070312 249.464844 204.992188 239.457031 203.792969 C 236.203125 205.28125 233.078125 205.652344 230.789062 205.652344 C 230.023438 205.652344 229.351562 205.609375 228.800781 205.558594 C 228.644531 205.542969 228.5 205.496094 228.363281 205.433594 C 227.863281 205.691406 227.351562 205.925781 226.832031 206.136719 C 224.765625 206.976562 223.113281 207.222656 221.65625 207.441406 C 220.339844 207.636719 219.097656 207.820312 217.609375 208.425781 C 214.042969 209.875 210.984375 213 208.523438 217.714844 C 208.1875 218.351562 207.425781 218.632812 206.757812 218.363281 C 206.09375 218.09375 205.738281 217.359375 205.941406 216.671875 C 206.675781 214.167969 206.722656 211.640625 206.074219 209.5625 C 205.484375 207.679688 204.394531 206.421875 203.007812 206.011719 C 201.621094 205.605469 200.023438 206.078125 198.507812 207.339844 C 196.835938 208.738281 195.507812 210.886719 194.773438 213.390625 C 194.039062 215.894531 193.992188 218.417969 194.640625 220.5 C 195.230469 222.378906 196.320312 223.640625 197.707031 224.046875 C 198.394531 224.25 199.128906 224.238281 199.894531 224.015625 C 199.941406 224 199.988281 223.992188 200.039062 223.984375 C 200.054688 223.980469 200.070312 223.976562 200.085938 223.972656 C 200.164062 223.960938 200.246094 223.957031 200.328125 223.960938 C 200.347656 223.960938 200.371094 223.964844 200.390625 223.964844 C 200.457031 223.96875 200.523438 223.980469 200.589844 223.992188 C 200.601562 223.996094 200.617188 223.996094 200.628906 224 C 200.636719 224 200.644531 224.007812 200.652344 224.007812 C 200.734375 224.03125 200.8125 224.058594 200.886719 224.09375 C 200.902344 224.101562 200.914062 224.109375 200.929688 224.117188 C 200.988281 224.148438 201.042969 224.179688 201.097656 224.21875 C 201.117188 224.234375 201.140625 224.25 201.160156 224.265625 C 201.207031 224.304688 201.253906 224.347656 201.296875 224.390625 C 201.308594 224.40625 201.324219 224.417969 201.339844 224.433594 C 201.34375 224.441406 201.347656 224.445312 201.355469 224.449219 C 201.402344 224.507812 201.445312 224.566406 201.480469 224.628906 C 201.492188 224.644531 201.496094 224.65625 201.503906 224.671875 C 201.535156 224.730469 201.566406 224.789062 201.589844 224.847656 C 201.597656 224.871094 201.605469 224.894531 201.613281 224.917969 C 201.632812 224.976562 201.648438 225.035156 201.660156 225.097656 C 201.664062 225.117188 201.667969 225.136719 201.671875 225.160156 C 201.683594 225.238281 201.6875 225.316406 201.683594 225.398438 C 201.683594 225.417969 201.679688 225.4375 201.679688 225.460938 C 201.675781 225.527344 201.664062 225.589844 201.652344 225.65625 C 201.648438 225.667969 201.648438 225.683594 201.644531 225.695312 C 200.734375 229.320312 201.113281 233.59375 202.71875 237.722656 C 205.632812 245.21875 212.183594 250.90625 220.246094 252.933594 L 228.621094 255.039062 C 232.066406 255.511719 240.648438 255.949219 247.585938 250.214844 Z M 159.085938 314.886719 L 179.648438 314.886719 L 179.648438 287.921875 C 179.648438 287.152344 180.273438 286.527344 181.042969 286.527344 C 181.816406 286.527344 182.441406 287.152344 182.441406 287.921875 L 182.441406 314.886719 L 274.113281 314.886719 L 259.359375 275.332031 C 259.085938 274.609375 259.457031 273.800781 260.179688 273.53125 C 260.902344 273.265625 261.707031 273.628906 261.976562 274.355469 L 277.097656 314.886719 L 289.160156 314.886719 L 289.246094 295.234375 C 289.261719 291.597656 291.089844 288.230469 294.136719 286.238281 C 294.164062 286.21875 294.195312 286.203125 294.222656 286.1875 L 303.785156 280.863281 C 303.78125 280.859375 303.777344 280.855469 303.777344 280.855469 C 297.175781 272.4375 289.203125 263.441406 286.917969 260.886719 C 275.558594 248.1875 271.332031 245.390625 266.152344 243.933594 C 263.089844 243.070312 259.84375 242.773438 256.5 243.035156 C 254.605469 246.585938 252.28125 249.964844 249.367188 252.371094 C 245.40625 255.644531 240.996094 257.128906 237.113281 257.730469 C 237.804688 258.027344 238.527344 258.449219 239.21875 259.050781 C 240.609375 260.265625 241.28125 261.695312 241.601562 262.679688 C 241.613281 262.71875 241.617188 262.753906 241.625 262.789062 C 241.632812 262.828125 241.644531 262.863281 241.648438 262.898438 C 241.660156 262.980469 241.664062 263.0625 241.664062 263.140625 C 241.664062 263.164062 241.667969 263.1875 241.664062 263.210938 C 241.65625 263.316406 241.636719 263.421875 241.605469 263.519531 C 241.605469 263.527344 241.605469 263.53125 241.601562 263.539062 L 235.304688 283.238281 C 235.117188 283.832031 234.566406 284.210938 233.976562 284.210938 C 233.832031 284.210938 233.691406 284.1875 233.550781 284.144531 C 232.8125 283.90625 232.40625 283.121094 232.644531 282.386719 L 238.308594 264.664062 C 229.015625 265.230469 215.992188 264.0625 203.179688 256.339844 C 198.347656 253.429688 193.976562 249.8125 190.132812 245.578125 C 190.085938 245.535156 190.042969 245.492188 190.003906 245.441406 C 189.875 245.296875 189.742188 245.160156 189.617188 245.015625 L 181.992188 260.132812 C 181.644531 260.820312 180.800781 261.097656 180.113281 260.75 C 179.421875 260.402344 179.144531 259.5625 179.492188 258.875 L 186.027344 245.921875 C 183.699219 244.570312 177.191406 241.507812 169.621094 244.132812 C 164.050781 246.066406 160.835938 250.019531 159.085938 253.113281 Z M 353.191406 314.886719 L 353.191406 256.542969 L 295.628906 288.605469 C 293.390625 290.085938 292.054688 292.566406 292.042969 295.246094 L 291.957031 314.886719 Z M 353.191406 314.886719 " fill-opacity="1" fill-rule="nonzero"/></g><g clip-path="url(#010ce2dcf2)"><path fill="#f6f4e7" d="M 19.339844 157.570312 L 178.949219 157.570312 L 178.949219 317.179688 L 19.339844 317.179688 Z M 19.339844 157.570312 " fill-opacity="1" fill-rule="nonzero"/></g><path fill="#69e344" d="M 75.324219 240.074219 L 81.898438 237.390625 L 81.898438 244.285156 L 72.285156 245.976562 L 39.800781 250.3125 L 34.683594 251.828125 L 30.675781 254.078125 L 25.289062 259.09375 L 20.703125 265.980469 L 20.128906 255.78125 L 20.890625 158.371094 L 55.234375 158.898438 L 54.210938 162.785156 L 54.445312 167.660156 L 52.390625 169.738281 C 52.390625 169.738281 46.808594 172.488281 46.492188 172.777344 C 46.175781 173.070312 42.574219 177.375 42.339844 180.238281 C 42.105469 183.097656 42.375 185.773438 42.375 185.773438 L 41.230469 188.371094 L 38.0625 191.449219 C 38.0625 191.449219 35.851562 194.472656 35.734375 197.625 C 35.617188 200.777344 37.925781 205.160156 37.925781 205.160156 C 37.925781 205.160156 40.742188 207.152344 40.832031 208.734375 C 40.925781 210.316406 39.417969 212.847656 39.417969 212.847656 C 39.417969 212.847656 37.65625 215.414062 37.773438 217.863281 C 37.894531 220.308594 38.0625 221.957031 38.0625 221.957031 L 39.691406 224.609375 L 42.855469 227.992188 L 46.792969 229.546875 L 47.679688 231.828125 L 47.503906 235.292969 L 50.167969 238.429688 L 55.234375 239.351562 L 59.148438 238.433594 L 63.191406 239.898438 L 68.804688 241.085938 Z M 146.425781 158.898438 L 147.449219 162.785156 L 147.21875 167.660156 L 149.269531 169.738281 C 149.269531 169.738281 154.851562 172.488281 155.167969 172.777344 C 155.484375 173.070312 159.085938 177.375 159.320312 180.238281 C 159.554688 183.097656 159.289062 185.773438 159.289062 185.773438 L 160.433594 188.371094 L 163.597656 191.449219 C 163.597656 191.449219 165.8125 194.472656 165.929688 197.625 C 166.046875 200.777344 163.734375 205.160156 163.734375 205.160156 C 163.734375 205.160156 160.917969 207.152344 160.828125 208.734375 C 160.734375 210.316406 162.246094 212.847656 162.246094 212.847656 C 162.246094 212.847656 164.007812 215.414062 163.886719 217.863281 C 163.769531 220.308594 163.597656 221.957031 163.597656 221.957031 L 161.96875 224.609375 L 158.804688 227.992188 L 154.867188 229.546875 L 153.980469 231.828125 L 154.15625 235.292969 L 151.496094 238.429688 L 146.425781 239.351562 L 142.511719 238.433594 L 138.46875 239.898438 L 132.855469 241.085938 L 126.335938 240.074219 L 119.761719 237.390625 L 119.761719 244.285156 L 129.375 245.976562 L 161.863281 250.3125 L 166.980469 251.828125 L 170.984375 254.078125 L 176.375 259.09375 L 178.160156 263.796875 L 178.160156 158.371094 Z M 146.425781 158.898438 " fill-opacity="1" fill-rule="nonzero"/><g clip-path="url(#38d8985cd3)"><path fill="#000000" d="M 68.472656 201.105469 C 68.925781 201.53125 68.945312 202.238281 68.523438 202.691406 C 68.300781 202.925781 68.003906 203.046875 67.703125 203.046875 C 67.429688 203.046875 67.152344 202.945312 66.9375 202.742188 C 66.121094 201.980469 65.058594 200.664062 64.621094 198.734375 C 63.96875 195.878906 65.132812 193.585938 65.664062 192.734375 C 65.992188 192.207031 66.6875 192.046875 67.210938 192.375 C 67.738281 192.699219 67.898438 193.394531 67.570312 193.917969 C 67.1875 194.535156 66.34375 196.191406 66.808594 198.234375 C 67.121094 199.613281 67.886719 200.558594 68.472656 201.105469 Z M 127.867188 203.046875 C 128.140625 203.046875 128.417969 202.945312 128.632812 202.742188 C 129.449219 201.980469 130.511719 200.664062 130.953125 198.734375 C 131.601562 195.878906 130.4375 193.585938 129.90625 192.734375 C 129.578125 192.207031 128.886719 192.046875 128.359375 192.375 C 127.832031 192.699219 127.671875 193.394531 128 193.917969 C 128.382812 194.535156 129.230469 196.195312 128.761719 198.234375 C 128.433594 199.6875 127.578125 200.65625 127.097656 201.105469 C 126.648438 201.53125 126.625 202.238281 127.046875 202.691406 C 127.269531 202.925781 127.566406 203.046875 127.867188 203.046875 Z M 97.75 209.746094 C 97.792969 209.746094 97.832031 209.746094 97.871094 209.742188 C 98 209.742188 98.128906 209.734375 98.257812 209.71875 C 99.65625 209.585938 100.941406 208.839844 101.78125 207.679688 C 102.660156 206.464844 102.972656 204.929688 102.644531 203.46875 L 98.457031 184.902344 C 98.320312 184.296875 97.71875 183.917969 97.117188 184.054688 C 96.511719 184.1875 96.132812 184.789062 96.269531 185.394531 L 100.457031 203.964844 C 100.644531 204.796875 100.464844 205.671875 99.964844 206.367188 C 99.496094 207.015625 98.8125 207.410156 98.039062 207.488281 C 97.96875 207.492188 97.894531 207.5 97.820312 207.5 C 96.21875 207.527344 94.796875 206.320312 94.480469 204.671875 C 94.367188 204.0625 93.78125 203.664062 93.171875 203.777344 C 92.5625 203.894531 92.160156 204.480469 92.277344 205.089844 C 92.785156 207.761719 95.125 209.746094 97.75 209.746094 Z M 88.503906 212.566406 C 88.882812 212.074219 88.792969 211.371094 88.300781 210.992188 C 87.808594 210.613281 87.105469 210.707031 86.726562 211.199219 C 85.660156 212.582031 84.734375 214.082031 83.980469 215.648438 C 82.585938 218.539062 81.757812 221.660156 81.519531 224.925781 C 81.472656 225.542969 81.9375 226.082031 82.554688 226.125 C 82.582031 226.128906 82.613281 226.128906 82.640625 226.128906 C 83.222656 226.128906 83.714844 225.679688 83.757812 225.089844 C 83.976562 222.109375 84.730469 219.261719 86.003906 216.625 C 86.691406 215.195312 87.53125 213.828125 88.503906 212.566406 Z M 108.304688 211.199219 C 107.925781 210.707031 107.222656 210.613281 106.730469 210.992188 C 106.238281 211.371094 106.148438 212.074219 106.527344 212.566406 C 107.5 213.828125 108.339844 215.195312 109.027344 216.625 C 110.300781 219.261719 111.054688 222.109375 111.273438 225.089844 C 111.316406 225.679688 111.808594 226.128906 112.390625 226.128906 C 112.417969 226.128906 112.445312 226.128906 112.476562 226.125 C 113.09375 226.082031 113.558594 225.542969 113.511719 224.925781 C 113.273438 221.660156 112.445312 218.539062 111.050781 215.648438 C 110.296875 214.082031 109.371094 212.582031 108.304688 211.199219 Z M 102.113281 218.421875 C 101.402344 218.828125 100.246094 219.324219 98.769531 219.359375 C 97.152344 219.394531 95.882812 218.867188 95.101562 218.421875 C 94.5625 218.113281 93.878906 218.296875 93.570312 218.835938 C 93.261719 219.371094 93.445312 220.058594 93.984375 220.367188 C 94.976562 220.9375 96.574219 221.601562 98.605469 221.601562 C 98.675781 221.601562 98.75 221.601562 98.820312 221.601562 C 100.769531 221.554688 102.296875 220.90625 103.234375 220.367188 C 103.769531 220.058594 103.957031 219.371094 103.648438 218.832031 C 103.339844 218.296875 102.652344 218.113281 102.113281 218.421875 Z M 82.207031 195.695312 C 80.992188 195.695312 80.003906 194.707031 80.003906 193.492188 C 80.003906 192.277344 80.992188 191.289062 82.207031 191.289062 C 83.421875 191.289062 84.414062 192.277344 84.414062 193.492188 C 84.414062 194.707031 83.421875 195.695312 82.207031 195.695312 Z M 82.246094 193.492188 C 82.246094 193.472656 82.230469 193.453125 82.207031 193.453125 C 82.1875 193.453125 82.167969 193.472656 82.167969 193.492188 C 82.167969 193.535156 82.246094 193.535156 82.246094 193.492188 Z M 115.027344 193.492188 C 115.027344 194.707031 114.039062 195.695312 112.824219 195.695312 C 111.609375 195.695312 110.617188 194.707031 110.617188 193.492188 C 110.617188 192.277344 111.609375 191.289062 112.824219 191.289062 C 114.039062 191.289062 115.027344 192.277344 115.027344 193.492188 Z M 112.863281 193.492188 C 112.863281 193.472656 112.84375 193.453125 112.824219 193.453125 C 112.800781 193.453125 112.785156 193.472656 112.785156 193.492188 C 112.785156 193.535156 112.863281 193.535156 112.863281 193.492188 Z M 88.910156 183.820312 C 88.910156 183.199219 88.40625 182.699219 87.785156 182.699219 L 78.734375 182.699219 C 78.117188 182.699219 77.613281 183.199219 77.613281 183.820312 C 77.613281 184.441406 78.117188 184.941406 78.734375 184.941406 L 87.785156 184.941406 C 88.40625 184.941406 88.910156 184.441406 88.910156 183.820312 Z M 107.242188 184.941406 L 116.296875 184.941406 C 116.914062 184.941406 117.417969 184.441406 117.417969 183.820312 C 117.417969 183.199219 116.914062 182.699219 116.296875 182.699219 L 107.242188 182.699219 C 106.625 182.699219 106.121094 183.199219 106.121094 183.820312 C 106.121094 184.441406 106.625 184.941406 107.242188 184.941406 Z M 179.28125 158.371094 L 179.28125 316.40625 C 179.28125 317.023438 178.78125 317.527344 178.160156 317.527344 L 20.128906 317.527344 C 19.507812 317.527344 19.007812 317.023438 19.007812 316.40625 L 19.007812 158.371094 C 19.007812 157.753906 19.507812 157.25 20.128906 157.25 L 178.160156 157.25 C 178.78125 157.25 179.28125 157.753906 179.28125 158.371094 Z M 177.039062 159.496094 L 147.203125 159.496094 C 148.179688 161.550781 148.367188 163.976562 147.734375 166.332031 C 147.597656 166.839844 147.667969 167.367188 147.933594 167.8125 C 148.1875 168.246094 148.597656 168.550781 149.082031 168.667969 C 151.972656 169.371094 154.503906 170.84375 156.410156 172.925781 C 159.453125 176.257812 160.765625 181.003906 159.921875 185.617188 C 159.785156 186.371094 160.074219 187.117188 160.65625 187.523438 C 164.769531 190.367188 167 195.101562 166.46875 199.875 C 166.023438 203.878906 163.753906 206.625 161.925781 208.222656 C 161.144531 208.90625 161.035156 210.089844 161.683594 210.863281 C 164.058594 213.703125 165.03125 217.488281 164.277344 220.988281 C 163.382812 225.160156 160.195312 228.550781 155.960938 229.839844 C 155.039062 230.121094 154.445312 231.058594 154.613281 231.972656 C 155.074219 234.488281 154.207031 237.097656 152.347656 238.78125 C 149.917969 240.984375 146.253906 241.28125 143.4375 239.507812 C 142.820312 239.117188 142.089844 239.074219 141.484375 239.398438 C 139.121094 240.648438 136.601562 241.449219 133.996094 241.777344 C 133.074219 241.894531 132.179688 241.945312 131.316406 241.945312 C 126.257812 241.945312 122.222656 240.15625 119.839844 238.753906 L 119.839844 243.03125 C 125.210938 244.347656 130.707031 245.472656 136.191406 246.378906 C 144.097656 247.679688 149.347656 248.109375 153.566406 248.449219 C 158.457031 248.847656 161.6875 249.109375 165.269531 250.546875 C 169.714844 252.328125 173.660156 255.539062 177.039062 260.113281 Z M 66.226562 248.261719 L 82.1875 267.1875 L 98.210938 249.050781 C 92.3125 248.84375 86.40625 247.664062 80.992188 245.589844 C 80.816406 245.519531 80.667969 245.410156 80.546875 245.273438 C 75.835938 246.421875 71.035156 247.421875 66.226562 248.261719 Z M 117.59375 243.761719 L 117.59375 233.832031 C 115.789062 234.75 113.746094 235.269531 111.585938 235.269531 L 84.390625 235.269531 C 83.753906 235.269531 83.128906 235.222656 82.515625 235.136719 L 82.515625 243.761719 C 88.195312 245.835938 94.402344 246.902344 100.542969 246.84375 C 106.429688 246.785156 112.160156 245.75 117.59375 243.761719 Z M 84.390625 233.023438 L 111.585938 233.023438 C 113.976562 233.023438 116.191406 232.261719 118 230.96875 C 118.046875 230.929688 118.097656 230.894531 118.148438 230.863281 C 120.882812 228.847656 122.664062 225.601562 122.664062 221.949219 L 122.664062 208.164062 C 122.664062 208.164062 122.664062 208.160156 122.664062 208.160156 L 122.664062 207.714844 C 122.664062 207.097656 123.164062 206.59375 123.785156 206.59375 C 124.402344 206.59375 124.90625 207.097656 124.90625 207.714844 L 124.90625 207.824219 C 125.421875 208.53125 126.222656 209.3125 127.324219 209.519531 C 130.636719 210.140625 134.421875 205.367188 135.597656 199.09375 C 136.199219 195.894531 136.058594 192.777344 135.210938 190.308594 C 134.4375 188.058594 133.179688 186.660156 131.667969 186.378906 C 129.664062 186.003906 127.328125 187.667969 125.570312 190.730469 C 125.5625 190.738281 125.554688 190.746094 125.550781 190.757812 C 125.527344 190.792969 125.503906 190.824219 125.476562 190.855469 C 125.457031 190.882812 125.433594 190.914062 125.410156 190.9375 C 125.386719 190.964844 125.359375 190.984375 125.332031 191.011719 C 125.304688 191.035156 125.273438 191.0625 125.242188 191.085938 C 125.230469 191.09375 125.222656 191.101562 125.210938 191.109375 C 125.191406 191.121094 125.171875 191.128906 125.152344 191.140625 C 125.117188 191.15625 125.085938 191.175781 125.050781 191.191406 C 125.015625 191.207031 124.980469 191.21875 124.945312 191.230469 C 124.914062 191.242188 124.878906 191.253906 124.847656 191.257812 C 124.808594 191.269531 124.769531 191.273438 124.734375 191.277344 C 124.699219 191.285156 124.664062 191.285156 124.632812 191.289062 C 124.59375 191.289062 124.558594 191.289062 124.519531 191.285156 C 124.484375 191.28125 124.449219 191.277344 124.414062 191.273438 C 124.378906 191.265625 124.34375 191.257812 124.308594 191.25 C 124.273438 191.238281 124.238281 191.230469 124.207031 191.21875 C 124.167969 191.203125 124.132812 191.1875 124.097656 191.167969 C 124.078125 191.160156 124.058594 191.152344 124.039062 191.140625 C 124.027344 191.136719 124.019531 191.128906 124.007812 191.121094 C 123.972656 191.101562 123.941406 191.074219 123.910156 191.050781 C 123.882812 191.027344 123.855469 191.007812 123.828125 190.984375 C 123.804688 190.960938 123.78125 190.933594 123.757812 190.90625 C 123.730469 190.875 123.703125 190.84375 123.679688 190.8125 C 123.671875 190.800781 123.664062 190.792969 123.660156 190.785156 L 111.488281 172.199219 C 111.160156 171.699219 110.632812 171.378906 110.039062 171.320312 C 109.433594 171.261719 108.832031 171.480469 108.398438 171.925781 C 105.121094 175.28125 100.730469 177.128906 96.039062 177.128906 C 91.53125 177.128906 87.261719 175.402344 84.023438 172.265625 C 83.5625 171.820312 82.9375 171.625 82.308594 171.734375 C 81.683594 171.839844 81.160156 172.230469 80.875 172.796875 L 71.976562 190.667969 C 71.792969 191.039062 71.421875 191.277344 71.007812 191.292969 C 70.589844 191.304688 70.207031 191.085938 70 190.730469 C 68.242188 187.667969 65.90625 186.003906 63.902344 186.378906 C 62.394531 186.660156 61.136719 188.058594 60.359375 190.308594 C 59.511719 192.777344 59.375 195.894531 59.972656 199.09375 C 61.152344 205.367188 64.941406 210.140625 68.246094 209.519531 C 69.488281 209.285156 70.347656 208.328125 70.847656 207.5625 C 71.1875 207.042969 71.882812 206.898438 72.402344 207.238281 C 72.472656 207.285156 72.535156 207.335938 72.589844 207.394531 C 73.011719 207.558594 73.3125 207.960938 73.3125 208.441406 L 73.3125 221.949219 C 73.3125 228.054688 78.28125 233.023438 84.390625 233.023438 Z M 101.402344 249.070312 L 117.410156 267.1875 L 133.4375 248.183594 C 128.78125 247.363281 124.128906 246.386719 119.5625 245.273438 C 119.445312 245.410156 119.292969 245.519531 119.117188 245.589844 C 113.480469 247.75 107.523438 248.917969 101.402344 249.070312 Z M 21.25 159.496094 L 21.25 262.808594 C 25.015625 256.777344 29.574219 252.65625 34.84375 250.546875 C 38.421875 249.109375 41.652344 248.847656 46.542969 248.449219 C 50.761719 248.109375 56.011719 247.679688 63.917969 246.378906 C 69.40625 245.472656 74.902344 244.347656 80.273438 243.03125 L 80.273438 239.332031 C 77.832031 240.601562 74.222656 241.945312 69.839844 241.945312 C 68.976562 241.945312 68.082031 241.894531 67.164062 241.777344 C 64.566406 241.453125 62.054688 240.65625 59.703125 239.414062 C 59.082031 239.085938 58.328125 239.128906 57.6875 239.527344 C 54.878906 241.277344 51.226562 240.972656 48.808594 238.78125 C 46.960938 237.105469 46.089844 234.511719 46.539062 232.003906 C 46.703125 231.074219 46.101562 230.117188 45.164062 229.832031 C 40.949219 228.535156 37.773438 225.144531 36.878906 220.988281 C 36.132812 217.515625 37.085938 213.75 39.429688 210.917969 C 40.09375 210.113281 39.980469 208.886719 39.179688 208.179688 C 37.375 206.585938 35.128906 203.851562 34.6875 199.875 C 34.160156 195.132812 36.363281 190.417969 40.4375 187.566406 C 41.054688 187.132812 41.363281 186.339844 41.222656 185.539062 C 40.40625 180.953125 41.722656 176.238281 44.75 172.925781 C 46.652344 170.84375 49.078125 169.417969 51.960938 168.695312 C 52.472656 168.566406 52.902344 168.246094 53.171875 167.792969 C 53.453125 167.320312 53.53125 166.757812 53.390625 166.210938 C 52.796875 163.898438 52.996094 161.515625 53.957031 159.496094 Z M 50.496094 277.765625 C 50.496094 276.96875 49.4375 276.273438 48.226562 276.273438 L 41.738281 276.273438 C 41.089844 276.273438 40.460938 276.46875 40.023438 276.804688 C 39.953125 276.859375 39.894531 276.914062 39.839844 276.96875 C 39.796875 277.035156 39.746094 277.09375 39.691406 277.148438 C 39.492188 277.429688 39.464844 277.675781 39.464844 277.765625 C 39.464844 277.804688 39.464844 277.847656 39.460938 277.886719 C 39.128906 280.921875 38.933594 284.007812 38.882812 287.050781 C 38.808594 291.234375 39.003906 295.472656 39.460938 299.644531 C 39.464844 299.683594 39.464844 299.726562 39.464844 299.765625 C 39.464844 301.546875 41.574219 303.050781 44.066406 303.050781 L 45.898438 303.050781 C 48.390625 303.050781 50.496094 301.546875 50.496094 299.765625 Z M 66.015625 298.867188 L 66.015625 299.765625 C 66.015625 301.546875 68.121094 303.050781 70.613281 303.050781 L 72.449219 303.050781 C 74.941406 303.050781 77.046875 301.546875 77.046875 299.765625 C 77.046875 299.726562 77.046875 299.683594 77.054688 299.644531 C 77.445312 296.070312 77.640625 292.445312 77.644531 288.851562 C 77.640625 288.792969 77.640625 288.734375 77.644531 288.675781 C 77.644531 288.132812 77.640625 287.589844 77.632812 287.050781 C 77.578125 284.003906 77.386719 280.921875 77.054688 277.886719 C 77.046875 277.847656 77.046875 277.804688 77.046875 277.765625 C 77.046875 277.640625 77.007812 277.203125 76.488281 276.804688 C 76.050781 276.46875 75.425781 276.273438 74.773438 276.273438 L 68.289062 276.273438 C 67.078125 276.273438 66.015625 276.96875 66.015625 277.765625 Z M 82.476562 289.96875 C 85.914062 292.335938 91.207031 292.117188 94.269531 289.472656 L 94.769531 289.046875 C 94.972656 288.867188 95.210938 288.582031 95.191406 288.210938 C 95.175781 287.890625 94.96875 287.582031 94.609375 287.332031 L 79.707031 277.070312 C 79.519531 276.941406 79.316406 276.835938 79.109375 276.738281 C 79.25 277.148438 79.28125 277.496094 79.289062 277.695312 C 79.625 280.78125 79.824219 283.914062 79.875 287.011719 C 79.882812 287.402344 79.882812 287.792969 79.886719 288.183594 Z M 117.722656 314.621094 L 115.140625 305.296875 L 82.992188 305.296875 L 80.371094 314.621094 Z M 118.082031 288.183594 C 118.082031 287.792969 118.085938 287.402344 118.09375 287.011719 C 118.144531 283.917969 118.34375 280.78125 118.679688 277.695312 C 118.683594 277.496094 118.71875 277.148438 118.859375 276.738281 C 118.648438 276.835938 118.449219 276.941406 118.261719 277.070312 L 103.355469 287.332031 C 103 287.582031 102.792969 287.890625 102.773438 288.210938 C 102.753906 288.582031 102.996094 288.871094 103.199219 289.046875 L 103.695312 289.472656 C 106.761719 292.117188 112.054688 292.335938 115.492188 289.96875 Z M 120.324219 288.847656 C 120.328125 292.445312 120.523438 296.066406 120.914062 299.644531 C 120.917969 299.683594 120.921875 299.726562 120.921875 299.765625 C 120.921875 301.546875 123.027344 303.050781 125.519531 303.050781 L 127.355469 303.050781 C 129.847656 303.050781 131.953125 301.546875 131.953125 299.765625 L 131.953125 277.765625 C 131.953125 276.96875 130.890625 276.273438 129.679688 276.273438 L 123.195312 276.273438 C 122.542969 276.273438 121.917969 276.46875 121.476562 276.804688 C 120.960938 277.203125 120.921875 277.640625 120.921875 277.765625 C 120.921875 277.804688 120.917969 277.847656 120.914062 277.886719 C 120.582031 280.925781 120.386719 284.007812 120.335938 287.050781 C 120.328125 287.59375 120.320312 288.132812 120.320312 288.679688 C 120.328125 288.734375 120.328125 288.792969 120.324219 288.847656 Z M 147.472656 298.867188 L 147.472656 299.765625 C 147.472656 301.546875 149.578125 303.050781 152.070312 303.050781 L 153.902344 303.050781 C 156.394531 303.050781 158.5 301.546875 158.5 299.765625 C 158.5 299.726562 158.503906 299.683594 158.507812 299.644531 C 158.964844 295.472656 159.160156 291.234375 159.085938 287.050781 C 159.035156 284.007812 158.839844 280.921875 158.507812 277.886719 C 158.503906 277.847656 158.5 277.804688 158.5 277.765625 C 158.5 277.675781 158.476562 277.429688 158.28125 277.148438 C 158.222656 277.09375 158.171875 277.035156 158.125 276.96875 C 158.074219 276.914062 158.015625 276.859375 157.945312 276.804688 C 157.503906 276.46875 156.878906 276.273438 156.230469 276.273438 L 149.742188 276.273438 C 148.53125 276.273438 147.472656 276.96875 147.472656 277.765625 Z M 136.789062 306.710938 L 134 314.621094 L 145.144531 314.621094 L 142.355469 306.710938 Z M 157.214844 304.601562 C 157.457031 304.730469 157.648438 304.945312 157.742188 305.214844 L 159.875 311.265625 L 162.007812 305.214844 C 162.015625 305.191406 162.027344 305.171875 162.039062 305.148438 C 160.957031 304.960938 159.941406 304.597656 159.078125 304.074219 C 158.921875 303.976562 158.800781 303.847656 158.707031 303.699219 C 158.265625 304.050781 157.761719 304.355469 157.214844 304.601562 Z M 150.324219 306.710938 L 147.535156 314.621094 L 158.679688 314.621094 L 155.890625 306.710938 Z M 172.214844 314.621094 L 169.425781 306.710938 L 163.859375 306.710938 L 161.074219 314.621094 Z M 165.6875 303.050781 C 166.648438 303.050781 169.84375 302.839844 170.664062 300.128906 C 170.914062 299.296875 170.96875 298.394531 171.027344 297.4375 L 171.050781 297.101562 C 171.222656 294.304688 171.402344 291.410156 171.402344 288.578125 L 171.402344 288.070312 C 171.402344 285.484375 171.402344 282.804688 170.542969 280.535156 C 170.160156 279.519531 169.621094 278.621094 168.945312 277.867188 C 168.269531 277.117188 167.871094 276.964844 166.714844 276.960938 L 162.09375 276.984375 C 161.574219 276.980469 161.09375 276.980469 160.652344 277.035156 C 160.71875 277.3125 160.738281 277.546875 160.746094 277.695312 C 161.082031 280.78125 161.277344 283.917969 161.332031 287.011719 C 161.402344 291.269531 161.207031 295.585938 160.746094 299.832031 C 160.734375 300.636719 160.5 301.402344 160.105469 302.089844 C 160.152344 302.109375 160.199219 302.128906 160.246094 302.15625 C 161.191406 302.734375 162.421875 303.050781 163.710938 303.050781 Z M 146.234375 302.640625 C 145.605469 303.507812 144.765625 304.207031 143.789062 304.667969 C 143.980469 304.800781 144.128906 304.988281 144.207031 305.214844 L 146.339844 311.265625 L 148.472656 305.214844 C 148.554688 304.984375 148.707031 304.792969 148.902344 304.664062 C 147.800781 304.195312 146.882812 303.492188 146.234375 302.640625 Z M 145.226562 278.296875 C 145.226562 277.183594 144.316406 276.273438 143.203125 276.273438 L 136.222656 276.273438 C 135.105469 276.273438 134.195312 277.183594 134.195312 278.296875 L 134.195312 298.867188 C 134.195312 301.175781 136.074219 303.050781 138.378906 303.050781 L 141.042969 303.050781 C 143.351562 303.050781 145.226562 301.175781 145.226562 298.867188 Z M 133.1875 302.640625 C 132.503906 303.542969 131.515625 304.269531 130.335938 304.734375 C 130.484375 304.859375 130.605469 305.023438 130.671875 305.214844 L 132.804688 311.265625 L 134.9375 305.214844 C 135.03125 304.941406 135.230469 304.722656 135.476562 304.59375 C 134.566406 304.132812 133.785156 303.460938 133.1875 302.640625 Z M 123.253906 306.710938 L 120.464844 314.621094 L 131.605469 314.621094 L 128.820312 306.710938 Z M 35.929688 305.148438 C 35.941406 305.171875 35.953125 305.191406 35.960938 305.214844 L 38.09375 311.265625 L 40.222656 305.214844 C 40.320312 304.945312 40.511719 304.730469 40.753906 304.601562 C 40.207031 304.355469 39.703125 304.050781 39.257812 303.699219 C 39.167969 303.847656 39.046875 303.976562 38.890625 304.074219 C 38.027344 304.597656 37.011719 304.960938 35.929688 305.148438 Z M 42.078125 306.710938 L 39.289062 314.621094 L 50.429688 314.621094 L 47.644531 306.710938 Z M 55.613281 306.710938 L 52.824219 314.621094 L 63.96875 314.621094 L 61.179688 306.710938 Z M 77.503906 314.621094 L 74.714844 306.710938 L 69.148438 306.710938 L 66.363281 314.621094 Z M 64.78125 302.640625 C 64.183594 303.460938 63.402344 304.132812 62.492188 304.59375 C 62.738281 304.722656 62.9375 304.941406 63.03125 305.214844 L 65.164062 311.265625 L 67.296875 305.214844 C 67.363281 305.023438 67.484375 304.859375 67.632812 304.734375 C 66.453125 304.269531 65.460938 303.542969 64.78125 302.640625 Z M 63.773438 278.296875 C 63.773438 277.183594 62.863281 276.273438 61.746094 276.273438 L 54.765625 276.273438 C 53.648438 276.273438 52.742188 277.183594 52.742188 278.296875 L 52.742188 298.867188 C 52.742188 301.175781 54.617188 303.050781 56.921875 303.050781 L 59.589844 303.050781 C 61.894531 303.050781 63.773438 301.175781 63.773438 298.867188 Z M 51.734375 302.640625 C 51.085938 303.492188 50.167969 304.195312 49.066406 304.664062 C 49.261719 304.792969 49.414062 304.984375 49.496094 305.214844 L 51.628906 311.265625 L 53.761719 305.214844 C 53.839844 304.988281 53.988281 304.800781 54.175781 304.667969 C 53.203125 304.207031 52.363281 303.507812 51.734375 302.640625 Z M 36.636719 287.011719 C 36.691406 283.917969 36.886719 280.78125 37.222656 277.695312 C 37.226562 277.546875 37.25 277.3125 37.316406 277.035156 C 36.871094 276.980469 36.394531 276.980469 35.875 276.984375 L 35.464844 276.984375 L 31.253906 276.960938 C 30.089844 276.960938 29.699219 277.117188 29.023438 277.867188 C 28.347656 278.621094 27.808594 279.519531 27.425781 280.535156 C 26.566406 282.804688 26.566406 285.480469 26.566406 288.070312 L 26.566406 288.578125 C 26.5625 291.414062 26.746094 294.3125 26.917969 297.113281 L 26.9375 297.4375 C 27 298.394531 27.054688 299.300781 27.304688 300.128906 C 28.125 302.839844 31.320312 303.050781 32.28125 303.050781 L 34.257812 303.050781 C 35.542969 303.050781 36.773438 302.734375 37.722656 302.15625 C 37.769531 302.128906 37.816406 302.109375 37.863281 302.089844 C 37.464844 301.402344 37.234375 300.636719 37.222656 299.832031 C 36.761719 295.582031 36.5625 291.269531 36.636719 287.011719 Z M 28.539062 306.710938 L 25.753906 314.621094 L 36.894531 314.621094 L 34.109375 306.710938 Z M 177.039062 315.285156 L 177.039062 264.121094 C 173.527344 258.441406 169.289062 254.574219 164.433594 252.628906 C 161.167969 251.320312 158.238281 251.082031 153.382812 250.6875 C 149.378906 250.363281 143.90625 249.917969 136.003906 248.621094 L 118.289062 269.628906 C 118.078125 269.878906 117.769531 270.023438 117.441406 270.027344 C 117.4375 270.027344 117.433594 270.027344 117.429688 270.027344 C 117.109375 270.027344 116.800781 269.890625 116.589844 269.648438 L 99.800781 250.640625 L 83.007812 269.648438 C 82.796875 269.890625 82.488281 270.027344 82.167969 270.027344 C 82.164062 270.027344 82.160156 270.027344 82.15625 270.027344 C 81.828125 270.023438 81.519531 269.878906 81.308594 269.628906 L 63.652344 248.691406 C 55.996094 249.933594 50.652344 250.367188 46.726562 250.6875 C 41.871094 251.082031 38.941406 251.320312 35.675781 252.628906 C 29.957031 254.917969 25.105469 259.875 21.25 267.351562 L 21.25 315.285156 L 23.140625 315.285156 L 26.6875 305.214844 C 26.847656 304.769531 27.269531 304.46875 27.746094 304.46875 L 28.410156 304.46875 C 26.8125 303.699219 25.652344 302.425781 25.15625 300.777344 C 24.832031 299.699219 24.765625 298.621094 24.699219 297.578125 L 24.679688 297.253906 C 24.503906 294.417969 24.320312 291.484375 24.324219 288.578125 L 24.324219 288.070312 C 24.320312 285.410156 24.320312 282.394531 25.324219 279.742188 C 25.808594 278.460938 26.492188 277.328125 27.355469 276.367188 C 28.460938 275.136719 29.4375 274.71875 31.207031 274.71875 C 31.226562 274.71875 31.246094 274.71875 31.265625 274.71875 L 35.871094 274.738281 C 36.738281 274.734375 37.695312 274.738281 38.648438 275.035156 C 38.648438 275.03125 38.652344 275.03125 38.652344 275.027344 C 39.492188 274.382812 40.585938 274.027344 41.738281 274.027344 L 48.226562 274.027344 C 49.609375 274.027344 50.847656 274.546875 51.675781 275.359375 C 52.453125 274.542969 53.550781 274.027344 54.765625 274.027344 L 61.746094 274.027344 C 62.960938 274.027344 64.058594 274.542969 64.835938 275.359375 C 65.664062 274.546875 66.902344 274.027344 68.289062 274.027344 L 74.773438 274.027344 C 75.121094 274.027344 75.460938 274.066406 75.789062 274.128906 C 77.632812 273.839844 79.554688 274.242188 80.980469 275.222656 L 95.886719 285.484375 C 96.816406 286.128906 97.378906 287.078125 97.433594 288.089844 C 97.484375 289.078125 97.046875 290.042969 96.234375 290.746094 L 95.734375 291.175781 C 93.699219 292.929688 90.875 293.824219 88.039062 293.824219 C 85.601562 293.824219 83.15625 293.160156 81.203125 291.816406 L 79.863281 290.894531 C 79.800781 293.878906 79.613281 296.871094 79.289062 299.832031 C 79.261719 301.839844 77.898438 303.585938 75.890625 304.535156 C 76.199219 304.648438 76.453125 304.894531 76.570312 305.214844 L 78.855469 311.710938 L 81.0625 303.871094 C 81.195312 303.386719 81.636719 303.050781 82.140625 303.050781 L 115.992188 303.050781 C 116.5 303.050781 116.941406 303.386719 117.074219 303.875 L 119.1875 311.496094 L 121.398438 305.214844 C 121.515625 304.894531 121.765625 304.648438 122.078125 304.535156 C 120.070312 303.585938 118.707031 301.839844 118.679688 299.832031 C 118.355469 296.871094 118.164062 293.878906 118.101562 290.894531 L 116.765625 291.816406 C 114.8125 293.160156 112.367188 293.824219 109.929688 293.824219 C 107.09375 293.824219 104.269531 292.929688 102.230469 291.175781 L 101.734375 290.746094 C 100.917969 290.042969 100.480469 289.078125 100.535156 288.089844 C 100.585938 287.078125 101.152344 286.128906 102.082031 285.488281 L 116.988281 275.222656 C 118.410156 274.242188 120.335938 273.84375 122.175781 274.128906 C 122.507812 274.066406 122.847656 274.027344 123.195312 274.027344 L 129.679688 274.027344 C 131.0625 274.027344 132.300781 274.546875 133.132812 275.359375 C 133.910156 274.542969 135.003906 274.027344 136.222656 274.027344 L 143.203125 274.027344 C 144.417969 274.027344 145.511719 274.542969 146.292969 275.359375 C 147.121094 274.546875 148.359375 274.027344 149.742188 274.027344 L 156.230469 274.027344 C 157.382812 274.027344 158.476562 274.382812 159.3125 275.027344 C 159.316406 275.03125 159.320312 275.03125 159.320312 275.035156 C 160.273438 274.738281 161.230469 274.734375 162.097656 274.738281 L 162.488281 274.738281 L 166.703125 274.71875 C 166.722656 274.71875 166.742188 274.71875 166.761719 274.71875 C 168.53125 274.71875 169.507812 275.136719 170.613281 276.367188 C 171.476562 277.328125 172.160156 278.464844 172.644531 279.742188 C 173.648438 282.398438 173.644531 285.410156 173.644531 288.070312 L 173.644531 288.578125 C 173.648438 291.480469 173.464844 294.410156 173.289062 297.242188 L 173.269531 297.578125 C 173.203125 298.621094 173.136719 299.699219 172.8125 300.777344 C 172.3125 302.425781 171.15625 303.699219 169.558594 304.46875 L 170.222656 304.46875 C 170.699219 304.46875 171.121094 304.769531 171.28125 305.214844 L 174.828125 315.285156 Z M 177.039062 315.285156 " fill-opacity="1" fill-rule="nonzero"/></g><g clip-path="url(#94cfb77f9c)"><path fill="#f6f4e7" d="M 19.449219 20.027344 L 222.503906 20.027344 L 222.503906 161.242188 L 19.449219 161.242188 Z M 19.449219 20.027344 " fill-opacity="1" fill-rule="nonzero"/></g><path fill="#ec6a2c" d="M 221.523438 20.71875 L 221.523438 92.511719 L 214.304688 81.992188 L 210.390625 77.265625 L 202.597656 69.964844 L 185.015625 62.832031 L 175.351562 62.015625 L 158.339844 20.71875 Z M 19.449219 97.078125 L 29.484375 81.175781 L 40.007812 71.433594 L 52.285156 64.75 L 60.726562 62.875 L 66.277344 62.875 L 69.945312 47.382812 L 81.613281 20.761719 L 20.425781 20.761719 Z M 19.449219 97.078125 " fill-opacity="1" fill-rule="nonzero"/><g clip-path="url(#7406281c88)"><path fill="#000000" d="M 136.273438 76.40625 C 136.070312 75.632812 136.515625 74.859375 137.292969 74.65625 C 139.167969 74.164062 141.085938 73.878906 143.003906 73.839844 C 145.328125 73.796875 147.613281 74.042969 149.855469 74.65625 C 150.628906 74.859375 151.078125 75.632812 150.875 76.40625 C 150.671875 77.183594 149.898438 77.628906 149.121094 77.425781 C 147.164062 76.898438 145.125 76.652344 143.085938 76.691406 C 141.371094 76.734375 139.699219 76.976562 138.027344 77.425781 C 137.902344 77.46875 137.78125 77.46875 137.660156 77.46875 C 137.007812 77.46875 136.4375 77.058594 136.273438 76.40625 Z M 121.667969 100.949219 C 122.28125 100.949219 122.894531 100.910156 123.464844 100.785156 C 127.21875 100.09375 130.398438 97.28125 131.785156 93.40625 C 132.03125 92.671875 131.664062 91.859375 130.929688 91.574219 C 130.195312 91.328125 129.378906 91.695312 129.09375 92.429688 C 128.074219 95.324219 125.707031 97.441406 122.976562 97.933594 C 119.222656 98.625 115.347656 96.261719 113.796875 92.347656 C 113.511719 91.613281 112.695312 91.246094 111.960938 91.53125 C 111.226562 91.816406 110.859375 92.632812 111.144531 93.367188 C 112.941406 98.015625 117.183594 100.949219 121.667969 100.949219 Z M 222.953125 20.71875 L 222.953125 160.550781 C 222.953125 161.324219 222.300781 161.976562 221.523438 161.976562 L 135.457031 161.976562 L 134.070312 162.261719 C 134.027344 162.179688 134.027344 162.058594 133.988281 161.976562 L 107.921875 161.976562 C 107.882812 162.058594 107.882812 162.179688 107.839844 162.261719 L 106.453125 161.976562 L 20.425781 161.976562 C 19.652344 161.976562 19 161.324219 19 160.550781 L 19 20.71875 C 19 19.945312 19.652344 19.292969 20.425781 19.292969 L 221.523438 19.292969 C 222.300781 19.292969 222.953125 19.945312 222.953125 20.71875 Z M 76.839844 62.179688 C 71.742188 63.117188 68.640625 69.4375 69.867188 76.285156 C 70.4375 79.546875 72.230469 82.441406 74.921875 84.480469 C 77.410156 86.355469 80.265625 87.210938 82.753906 86.761719 C 82.960938 86.722656 83.164062 86.722656 83.328125 86.761719 C 84.019531 86.84375 84.589844 87.457031 84.589844 88.1875 C 84.589844 109.46875 101.316406 126.796875 121.875 126.796875 C 142.433594 126.796875 159.15625 109.46875 159.15625 88.1875 C 159.15625 88.148438 159.15625 88.066406 159.15625 88.027344 C 159.15625 87.984375 159.15625 87.945312 159.15625 87.902344 C 159.277344 87.128906 160.054688 86.597656 160.828125 86.761719 C 166.785156 87.863281 172.65625 82.035156 173.675781 76.324219 C 174.902344 69.476562 171.800781 63.160156 166.703125 62.222656 C 164.171875 61.773438 162.175781 62.875 161.96875 62.953125 C 160.707031 63.8125 160.011719 64.992188 159.6875 65.890625 C 159.6875 65.929688 159.644531 65.972656 159.605469 66.011719 C 159.605469 66.054688 159.5625 66.09375 159.5625 66.132812 C 159.5625 66.175781 159.523438 66.175781 159.480469 66.214844 C 159.441406 66.257812 159.402344 66.296875 159.359375 66.339844 C 158.503906 67.195312 156.179688 69.152344 152.671875 69.394531 C 149.285156 69.640625 146.796875 68.214844 145.613281 67.359375 C 145.246094 67.070312 144.960938 66.707031 144.796875 66.296875 L 141.046875 56.351562 L 138.71875 66.949219 C 138.558594 67.644531 138.109375 68.253906 137.457031 68.539062 C 135.128906 69.722656 132.640625 70.539062 130.113281 70.984375 C 123.996094 72.085938 118.691406 70.863281 115.347656 69.597656 C 114.570312 69.3125 114 68.660156 113.835938 67.847656 L 111.636719 56.960938 L 108.289062 66.460938 C 108.085938 67.070312 107.636719 67.519531 107.066406 67.804688 C 104.171875 69.191406 99.480469 70.699219 93.851562 69.964844 C 90.585938 69.558594 87.527344 68.457031 84.671875 66.707031 C 84.265625 66.460938 83.9375 66.054688 83.734375 65.605469 C 83.40625 64.789062 82.753906 63.6875 81.574219 62.914062 C 81.492188 62.914062 79.410156 61.730469 76.839844 62.179688 Z M 21.855469 90.226562 C 29.359375 77.34375 39.027344 68.457031 50.652344 63.8125 C 54.285156 62.382812 58.117188 61.363281 62.035156 60.753906 C 63.828125 51.089844 65.828125 43.792969 68.519531 37.191406 C 70.722656 31.726562 73.699219 26.671875 77.371094 22.148438 L 21.855469 22.148438 Z M 132.96875 159.125 C 130.726562 154.515625 126.074219 151.621094 120.976562 151.621094 C 115.835938 151.621094 111.1875 154.558594 108.984375 159.125 Z M 194.886719 140.820312 C 194.886719 137.191406 191.953125 134.214844 188.28125 134.214844 L 52.652344 134.214844 C 49.019531 134.214844 46.042969 137.148438 46.042969 140.820312 L 46.042969 159.125 L 105.84375 159.125 C 105.925781 158.917969 105.964844 158.714844 106.046875 158.550781 C 108.617188 152.601562 114.449219 148.769531 120.933594 148.769531 C 127.421875 148.769531 133.292969 152.601562 135.824219 158.59375 C 135.90625 158.757812 135.988281 158.960938 136.027344 159.164062 L 194.808594 159.164062 L 194.808594 140.820312 Z M 220.097656 92.917969 C 212.796875 79.914062 203.371094 71.027344 191.992188 66.460938 C 188.648438 65.117188 185.097656 64.175781 181.425781 63.605469 C 183.222656 75.59375 182.570312 87.984375 179.226562 99.359375 C 177.105469 106.65625 173.839844 113.585938 169.597656 119.988281 C 169.355469 120.394531 168.90625 120.640625 168.414062 120.640625 L 146.753906 120.640625 C 146.753906 120.640625 146.714844 120.640625 146.714844 120.640625 C 139.863281 126.265625 131.214844 129.609375 121.792969 129.609375 C 112.574219 129.609375 104.089844 126.386719 97.316406 120.964844 C 97.15625 121.046875 96.949219 121.085938 96.746094 121.085938 L 75.085938 121.085938 C 74.636719 121.085938 74.230469 120.882812 73.945312 120.515625 C 69.210938 114.28125 63.054688 103.925781 60.769531 89.941406 C 59.585938 82.6875 59.585938 75.265625 60.726562 67.929688 C 60.972656 66.378906 61.21875 64.992188 61.421875 63.648438 C 58.035156 64.21875 54.730469 65.117188 51.632812 66.378906 C 39.394531 71.394531 29.320312 81.382812 21.855469 96.21875 L 21.855469 159.125 L 43.1875 159.125 L 43.1875 140.820312 C 43.1875 135.601562 47.429688 131.359375 52.652344 131.359375 L 188.28125 131.359375 C 193.5 131.359375 197.742188 135.601562 197.742188 140.820312 L 197.742188 159.125 L 220.097656 159.125 Z M 220.097656 22.148438 L 163.355469 22.148438 C 172.289062 32.664062 178.328125 46.320312 180.9375 60.671875 C 185.140625 61.242188 189.179688 62.300781 193.011719 63.8125 C 203.738281 68.089844 212.796875 76 220.054688 87.332031 L 220.054688 22.148438 Z M 142.511719 85.253906 C 141.332031 85.253906 140.390625 86.191406 140.390625 87.375 C 140.390625 88.554688 141.332031 89.492188 142.511719 89.492188 C 143.695312 89.492188 144.632812 88.554688 144.632812 87.375 C 144.632812 86.191406 143.695312 85.253906 142.511719 85.253906 Z M 162.5 78.203125 C 161.929688 78.730469 161.847656 79.628906 162.378906 80.199219 C 162.664062 80.523438 163.070312 80.6875 163.4375 80.6875 C 163.765625 80.6875 164.132812 80.566406 164.378906 80.320312 C 164.949219 79.792969 166.867188 77.875 166.867188 74.816406 C 166.867188 71.761719 164.988281 69.804688 164.378906 69.3125 C 163.804688 68.785156 162.867188 68.824219 162.378906 69.4375 C 161.847656 70.007812 161.890625 70.945312 162.5 71.433594 C 162.746094 71.679688 164.011719 72.902344 164.011719 74.816406 C 164.011719 76.734375 162.746094 77.957031 162.5 78.203125 Z M 79.125 80.320312 C 79.410156 80.566406 79.738281 80.6875 80.0625 80.6875 C 80.472656 80.6875 80.839844 80.523438 81.125 80.199219 C 81.652344 79.628906 81.613281 78.691406 81 78.203125 C 80.757812 77.957031 79.492188 76.734375 79.492188 74.816406 C 79.492188 72.902344 80.757812 71.636719 81 71.433594 C 81.574219 70.902344 81.652344 70.007812 81.125 69.4375 C 80.59375 68.867188 79.695312 68.785156 79.125 69.3125 C 78.554688 69.84375 76.636719 71.761719 76.636719 74.816406 C 76.636719 77.875 78.554688 79.792969 79.125 80.320312 Z M 108.332031 111.914062 C 108.207031 111.507812 108.289062 111.019531 108.535156 110.652344 C 108.78125 110.285156 109.1875 110.082031 109.636719 110.039062 C 109.675781 110.039062 115.550781 109.835938 121.425781 109.753906 C 133.867188 109.550781 134.191406 109.878906 134.761719 110.40625 C 135.046875 110.691406 135.210938 111.101562 135.210938 111.46875 C 135.210938 113.914062 134.191406 116.15625 132.273438 117.988281 C 129.707031 120.4375 125.625 121.984375 121.75 121.984375 C 121.546875 121.984375 121.34375 121.984375 121.140625 121.984375 C 115.222656 121.699219 110.085938 117.664062 108.332031 111.914062 Z M 111.757812 112.851562 C 113.550781 116.480469 117.183594 118.925781 121.261719 119.132812 C 124.566406 119.292969 128.195312 117.988281 130.316406 115.953125 C 131.335938 114.972656 131.988281 113.871094 132.234375 112.648438 C 129.175781 112.484375 120.28125 112.609375 111.757812 112.851562 Z M 91.445312 77.46875 C 91.566406 77.46875 91.6875 77.46875 91.8125 77.425781 C 93.769531 76.898438 95.808594 76.652344 97.847656 76.691406 C 99.5625 76.734375 101.234375 76.976562 102.90625 77.425781 C 103.679688 77.628906 104.457031 77.183594 104.660156 76.40625 C 104.863281 75.632812 104.414062 74.859375 103.640625 74.65625 C 101.765625 74.164062 99.847656 73.878906 97.929688 73.839844 C 95.605469 73.796875 93.320312 74.042969 91.078125 74.65625 C 90.300781 74.859375 89.851562 75.632812 90.058594 76.40625 C 90.21875 77.058594 90.792969 77.46875 91.445312 77.46875 Z M 98.664062 85.253906 C 97.480469 85.253906 96.542969 86.191406 96.542969 87.375 C 96.542969 88.554688 97.480469 89.492188 98.664062 89.492188 C 99.847656 89.492188 100.785156 88.554688 100.785156 87.375 C 100.785156 86.191406 99.804688 85.253906 98.664062 85.253906 Z M 98.664062 85.253906 " fill-opacity="1" fill-rule="nonzero"/></g><g clip-path="url(#7d82ec2356)"><path fill="#f6f4e7" d="M 212.984375 19.523438 L 355.433594 19.523438 L 355.433594 161.972656 L 212.984375 161.972656 Z M 212.984375 19.523438 " fill-opacity="1" fill-rule="nonzero"/></g><path fill="#f2cdfc" d="M 274.308594 20.242188 L 266.710938 28.167969 L 267.820312 29.242188 L 258.578125 45.59375 L 254.96875 57.15625 C 254.96875 57.15625 255.027344 61.90625 254.96875 63.375 C 254.914062 64.847656 258.207031 70.804688 258.207031 70.804688 L 254.96875 81.476562 L 252.699219 88.03125 L 250.113281 88.667969 L 239.953125 91.171875 C 239.953125 91.171875 237.6875 92.378906 232.59375 93.027344 C 227.496094 93.679688 227.746094 97.140625 227.746094 97.140625 L 226.136719 102.992188 L 225.8125 114.109375 L 223.335938 136.308594 L 220.238281 161.28125 L 213.6875 161.28125 L 213.6875 20.242188 Z M 304.488281 20.242188 L 313.214844 27.359375 L 317.78125 35.105469 L 320.121094 43.316406 C 320.121094 43.316406 321.703125 57.207031 321.929688 63.289062 C 322.15625 69.371094 320.203125 86.367188 320.203125 86.367188 L 318.988281 89.984375 C 318.988281 89.984375 323.238281 90.960938 330.476562 92.625 C 337.714844 94.289062 339.847656 100.628906 339.847656 100.628906 L 342.441406 111.410156 L 353.242188 159.78125 L 354.730469 158.457031 L 354.730469 20.242188 Z M 304.488281 20.242188 " fill-opacity="1" fill-rule="nonzero"/><g clip-path="url(#c0954c9fb1)"><path fill="#000000" d="M 284.316406 48.707031 C 284.316406 47.855469 285.007812 47.160156 285.859375 47.160156 C 286.710938 47.160156 287.402344 47.855469 287.402344 48.707031 C 287.402344 49.558594 286.710938 50.25 285.859375 50.25 C 285.007812 50.25 284.316406 49.558594 284.316406 48.707031 Z M 267.820312 40.878906 C 268.671875 40.878906 269.367188 40.1875 269.367188 39.335938 C 269.367188 38.484375 268.671875 37.792969 267.820312 37.792969 C 266.96875 37.792969 266.277344 38.484375 266.277344 39.335938 C 266.277344 40.1875 266.96875 40.878906 267.820312 40.878906 Z M 287.488281 43.011719 C 288.128906 43.105469 288.753906 43.285156 289.34375 43.542969 C 290.269531 43.945312 291.097656 44.535156 291.796875 45.292969 C 291.992188 45.503906 292.261719 45.613281 292.53125 45.613281 C 292.773438 45.613281 293.019531 45.523438 293.210938 45.347656 C 293.617188 44.96875 293.640625 44.335938 293.265625 43.929688 C 292.375 42.96875 291.324219 42.222656 290.144531 41.707031 C 289.390625 41.378906 288.597656 41.152344 287.777344 41.03125 C 287.234375 40.953125 286.722656 41.332031 286.644531 41.878906 C 286.5625 42.425781 286.941406 42.933594 287.488281 43.011719 Z M 266.964844 33.480469 C 266.984375 34.035156 267.449219 34.460938 268 34.445312 C 268.648438 34.421875 269.292969 34.484375 269.921875 34.628906 C 270.90625 34.859375 271.824219 35.289062 272.648438 35.90625 C 272.828125 36.042969 273.039062 36.109375 273.25 36.109375 C 273.554688 36.109375 273.855469 35.96875 274.050781 35.707031 C 274.382812 35.261719 274.292969 34.636719 273.847656 34.304688 C 272.800781 33.519531 271.632812 32.972656 270.375 32.679688 C 269.578125 32.492188 268.753906 32.414062 267.929688 32.445312 C 267.375 32.464844 266.945312 32.929688 266.964844 33.480469 Z M 265.679688 44.433594 C 265.34375 44.691406 263.65625 46.082031 263.589844 48.351562 C 263.511719 50.984375 265.664062 53.445312 268.710938 54.203125 C 268.792969 54.222656 268.875 54.230469 268.953125 54.230469 C 269.402344 54.230469 269.8125 53.925781 269.925781 53.472656 C 270.058594 52.933594 269.730469 52.390625 269.195312 52.257812 C 267.054688 51.726562 265.539062 50.109375 265.589844 48.414062 C 265.632812 47.023438 266.761719 46.128906 266.890625 46.03125 C 268.328125 44.941406 270.625 45.144531 272.476562 46.519531 C 272.714844 46.699219 273.015625 46.761719 273.304688 46.691406 C 273.59375 46.621094 273.835938 46.429688 273.96875 46.164062 L 277.847656 38.410156 C 278.09375 37.914062 277.890625 37.3125 277.398438 37.066406 C 276.902344 36.816406 276.300781 37.019531 276.054688 37.515625 L 272.671875 44.277344 C 270.300781 42.988281 267.550781 43.015625 265.679688 44.433594 Z M 298.277344 63.519531 C 298.519531 63.519531 298.761719 63.433594 298.953125 63.257812 C 299.730469 62.542969 300.773438 61.3125 301.332031 59.503906 C 301.714844 58.269531 301.8125 56.941406 301.609375 55.660156 C 301.523438 55.113281 301.015625 54.738281 300.464844 54.824219 C 299.917969 54.910156 299.542969 55.425781 299.628906 55.972656 C 299.785156 56.953125 299.714844 57.96875 299.421875 58.910156 C 298.992188 60.292969 298.195312 61.234375 297.597656 61.78125 C 297.191406 62.15625 297.164062 62.789062 297.539062 63.199219 C 297.738281 63.414062 298.007812 63.519531 298.277344 63.519531 Z M 275.542969 61.921875 C 275.640625 62.179688 275.628906 62.460938 275.511719 62.707031 C 274.054688 65.769531 270.964844 67.617188 267.769531 67.617188 C 266.804688 67.617188 265.828125 67.449219 264.882812 67.09375 C 260.539062 65.453125 258.355469 60.527344 260.019531 56.109375 C 260.113281 55.851562 260.308594 55.648438 260.5625 55.539062 C 260.8125 55.433594 261.097656 55.433594 261.347656 55.539062 L 275 61.355469 C 275.25 61.464844 275.449219 61.667969 275.542969 61.921875 Z M 273.179688 62.757812 L 261.605469 57.824219 C 260.996094 60.886719 262.660156 64.113281 265.589844 65.21875 C 268.359375 66.261719 271.503906 65.1875 273.179688 62.757812 Z M 355.730469 20.242188 L 355.730469 161.28125 C 355.730469 161.832031 355.28125 162.28125 354.730469 162.28125 L 353.578125 162.28125 C 353.578125 162.28125 353.574219 162.28125 353.574219 162.28125 C 353.574219 162.28125 353.574219 162.28125 353.570312 162.28125 L 213.6875 162.28125 C 213.136719 162.28125 212.6875 161.832031 212.6875 161.28125 L 212.6875 20.242188 C 212.6875 19.6875 213.136719 19.238281 213.6875 19.238281 L 274.554688 19.238281 C 274.554688 19.238281 274.558594 19.238281 274.558594 19.238281 L 354.730469 19.238281 C 355.28125 19.238281 355.730469 19.6875 355.730469 20.242188 Z M 269.699219 84.109375 C 269.324219 84.503906 268.871094 84.828125 268.367188 85.082031 L 281.636719 100.125 L 295.910156 83.9375 C 296.039062 83.792969 296.199219 83.695312 296.375 83.644531 C 294.539062 81.355469 293.5625 78.136719 293.53125 74.207031 C 293.507812 71.390625 293.976562 68.890625 294.238281 67.71875 C 294.035156 67.546875 293.84375 67.351562 293.667969 67.136719 C 291.457031 70.394531 285.152344 78.511719 276.601562 79.667969 C 276.488281 79.683594 275.664062 79.789062 274.390625 79.789062 C 273.472656 79.789062 272.316406 79.734375 271.023438 79.550781 C 271.28125 81.261719 270.8125 82.953125 269.699219 84.109375 Z M 266.261719 85.71875 L 259.207031 87.457031 L 262.550781 106.808594 C 265.101562 107.488281 271.445312 108.617188 276.878906 104.988281 C 278.195312 104.105469 279.363281 103.007812 280.367188 101.714844 Z M 262.921875 108.957031 L 264.523438 118.226562 L 301.980469 118.226562 L 303.890625 107.175781 C 301.503906 108.105469 299.03125 108.582031 296.507812 108.597656 C 296.460938 108.601562 296.414062 108.601562 296.367188 108.601562 C 289.476562 108.601562 284.410156 105.105469 281.941406 102.953125 C 280.808594 104.410156 279.484375 105.652344 277.992188 106.652344 C 274.65625 108.882812 271.039062 109.523438 267.988281 109.523438 C 265.972656 109.523438 264.207031 109.242188 262.921875 108.957031 Z M 304.296875 104.820312 L 307.152344 88.292969 L 300.960938 86.871094 C 300.917969 86.859375 300.875 86.847656 300.835938 86.832031 C 299.6875 86.402344 298.644531 85.800781 297.742188 85.046875 C 297.695312 85.007812 297.652344 84.964844 297.605469 84.925781 C 297.566406 85.046875 297.5 85.160156 297.410156 85.261719 L 283.195312 101.386719 C 285.417969 103.34375 290.0625 106.597656 296.367188 106.597656 C 296.410156 106.597656 296.449219 106.597656 296.492188 106.597656 C 299.171875 106.578125 301.792969 105.976562 304.296875 104.820312 Z M 268.441406 30.589844 C 267.910156 31.292969 263.785156 36.847656 260.394531 44.007812 C 257.398438 50.34375 254.367188 59.351562 256.964844 66.289062 C 258.378906 70.0625 260.988281 72.6875 261.015625 72.714844 C 267.195312 78.839844 275.960938 77.734375 276.332031 77.683594 C 285.351562 76.460938 291.917969 66.230469 292.683594 64.976562 C 292.746094 64.644531 292.972656 64.351562 293.308594 64.222656 C 293.824219 64.023438 294.402344 64.28125 294.601562 64.796875 C 294.898438 65.566406 295.324219 66.113281 295.871094 66.429688 C 297.996094 67.65625 301.617188 65.535156 303.777344 61.796875 C 305.9375 58.058594 305.960938 53.859375 303.835938 52.632812 C 302.671875 51.960938 300.902344 52.605469 299.953125 53.050781 C 299.480469 53.269531 298.921875 53.09375 298.660156 52.640625 C 297.757812 51.066406 297.03125 49.398438 296.511719 47.675781 C 296.066406 46.207031 295.761719 44.695312 295.605469 43.175781 L 290.492188 40.519531 C 290.117188 40.324219 289.902344 39.917969 289.960938 39.5 L 290.296875 36.953125 L 288.929688 38.644531 C 288.652344 38.992188 288.175781 39.113281 287.765625 38.941406 L 278.449219 35.0625 C 278.035156 34.886719 277.785156 34.457031 277.84375 34.007812 L 278.167969 31.484375 L 276.636719 33.277344 C 276.355469 33.609375 275.886719 33.722656 275.484375 33.550781 Z M 220.074219 160.277344 L 225.710938 100.445312 C 226.101562 96.289062 229.089844 92.824219 233.144531 91.820312 L 252.382812 87.078125 L 256.917969 70.660156 C 256.269531 69.617188 255.609375 68.382812 255.089844 66.992188 C 252.808594 60.898438 253.984375 52.875 258.585938 43.152344 C 261.683594 36.609375 265.386719 31.367188 266.539062 29.792969 L 266.007812 29.566406 C 265.734375 29.453125 265.523438 29.222656 265.4375 28.9375 C 265.351562 28.652344 265.394531 28.34375 265.558594 28.097656 C 267.292969 25.441406 269.308594 23.144531 271.566406 21.242188 L 214.691406 21.242188 L 214.691406 160.277344 Z M 238.316406 118.226562 L 262.492188 118.226562 L 257.257812 87.9375 L 233.625 93.765625 C 230.394531 94.5625 228.015625 97.324219 227.703125 100.632812 L 222.085938 160.277344 L 229.902344 160.277344 L 229.902344 126.644531 C 229.902344 122.003906 233.675781 118.226562 238.316406 118.226562 Z M 290.976562 157.519531 C 290.976562 153.707031 287.871094 150.605469 284.058594 150.605469 C 280.246094 150.605469 277.144531 153.707031 277.144531 157.519531 C 277.144531 158.472656 277.339844 159.414062 277.714844 160.277344 L 290.402344 160.277344 C 290.777344 159.414062 290.976562 158.472656 290.976562 157.519531 Z M 335.246094 126.644531 C 335.246094 123.109375 332.367188 120.230469 328.828125 120.230469 L 238.316406 120.230469 C 234.78125 120.230469 231.90625 123.109375 231.90625 126.644531 L 231.90625 160.277344 L 275.578125 160.277344 C 275.292969 159.390625 275.140625 158.460938 275.140625 157.519531 C 275.140625 152.605469 279.140625 148.601562 284.058594 148.601562 C 288.976562 148.601562 292.976562 152.605469 292.976562 157.519531 C 292.976562 158.460938 292.828125 159.390625 292.539062 160.277344 L 335.246094 160.277344 Z M 352.324219 160.277344 L 339.523438 102.933594 C 338.496094 98.324219 334.855469 94.660156 330.25 93.601562 L 309.105469 88.742188 L 304.011719 118.226562 L 328.828125 118.226562 C 333.472656 118.226562 337.246094 122.003906 337.246094 126.644531 L 337.246094 160.277344 Z M 353.726562 21.242188 L 307.945312 21.242188 C 309.425781 22.28125 310.804688 23.417969 312.0625 24.640625 C 320.089844 32.449219 321.589844 43.25 322.519531 54.5625 C 323.453125 65.9375 322.84375 77.636719 320.703125 89.351562 L 330.699219 91.648438 C 336.050781 92.878906 340.28125 97.136719 341.476562 102.5 L 353.726562 157.363281 Z M 353.726562 21.242188 " fill-opacity="1" fill-rule="nonzero"/></g></svg>