<svg xmlns="http://www.w3.org/2000/svg" xmlns:xlink="http://www.w3.org/1999/xlink" width="500" zoomAndPan="magnify" viewBox="0 0 375 374.999991" height="500" preserveAspectRatio="xMidYMid meet" version="1.0"><defs><g/></defs><g fill="#2b2d42" fill-opacity="1"><g transform="translate(172.910808, 238.289788)"><g><path d="M 144.625 -63.484375 C 144.488281 -62.835938 144.484375 -62.1875 144.609375 -61.53125 C 144.742188 -60.882812 144.8125 -60.046875 144.8125 -59.015625 C 151.675781 -59.921875 158.34375 -61.082031 164.8125 -62.5 C 171.28125 -63.925781 177.816406 -64.054688 184.421875 -62.890625 C 184.679688 -62.378906 184.90625 -61.925781 185.09375 -61.53125 C 185.289062 -61.144531 185.453125 -60.757812 185.578125 -60.375 C 185.710938 -59.988281 185.78125 -59.566406 185.78125 -59.109375 C 185.78125 -58.660156 185.84375 -58.113281 185.96875 -57.46875 C 178.71875 -56.8125 171.597656 -55.546875 164.609375 -53.671875 C 157.628906 -51.796875 150.515625 -49.890625 143.265625 -47.953125 C 142.878906 -44.972656 142.457031 -42.023438 142 -39.109375 C 141.550781 -36.203125 141.195312 -33.257812 140.9375 -30.28125 C 139.769531 -17.726562 138.632812 -5.113281 137.53125 7.5625 C 136.4375 20.25 135.4375 32.9375 134.53125 45.625 C 134.007812 51.707031 133.75 57.785156 133.75 63.859375 C 133.75 69.941406 134.203125 75.960938 135.109375 81.921875 C 135.242188 82.828125 135.375 83.695312 135.5 84.53125 C 135.625 85.375 135.816406 86.316406 136.078125 87.359375 C 137.242188 87.617188 138.375 87.910156 139.46875 88.234375 C 140.570312 88.554688 141.769531 88.910156 143.0625 89.296875 C 141.90625 91.492188 140.515625 92.976562 138.890625 93.75 C 137.273438 94.53125 135.367188 94.859375 133.171875 94.734375 C 129.421875 94.472656 126.765625 92.398438 125.203125 88.515625 C 124.691406 87.222656 124.238281 85.863281 123.84375 84.4375 C 123.457031 83.019531 123.132812 81.535156 122.875 79.984375 C 122.488281 76.617188 122.132812 73.253906 121.8125 69.890625 C 121.488281 66.523438 121.265625 63.160156 121.140625 59.796875 C 120.878906 48.015625 121.039062 36.300781 121.625 24.65625 C 122.207031 13.007812 123.015625 1.363281 124.046875 -10.28125 C 124.429688 -14.164062 124.816406 -18.113281 125.203125 -22.125 C 125.597656 -26.132812 125.925781 -30.148438 126.1875 -34.171875 C 126.3125 -35.460938 126.34375 -36.753906 126.28125 -38.046875 C 126.21875 -39.335938 126.1875 -40.828125 126.1875 -42.515625 C 125.019531 -42.253906 123.914062 -42.023438 122.875 -41.828125 C 121.84375 -41.640625 120.875 -41.347656 119.96875 -40.953125 C 110.78125 -37.722656 101.625 -34.425781 92.5 -31.0625 C 83.375 -27.695312 74.21875 -24.394531 65.03125 -21.15625 C 61.019531 -19.738281 58.300781 -17.21875 56.875 -13.59375 C 53.644531 -5.175781 50.347656 3.203125 46.984375 11.546875 C 43.617188 19.898438 40.316406 28.28125 37.078125 36.6875 C 36.429688 38.5 35.910156 40.34375 35.515625 42.21875 C 35.128906 44.09375 34.613281 45.9375 33.96875 47.75 C 33.84375 48.144531 33.488281 48.566406 32.90625 49.015625 C 32.320312 49.472656 31.835938 49.703125 31.453125 49.703125 C 29.898438 49.441406 28.734375 48.789062 27.953125 47.75 C 27.304688 46.582031 27.113281 45.160156 27.375 43.484375 C 27.757812 40.765625 28.113281 38.078125 28.4375 35.421875 C 28.757812 32.773438 29.3125 30.222656 30.09375 27.765625 C 31.644531 22.710938 33.289062 17.660156 35.03125 12.609375 C 36.78125 7.566406 38.5 2.519531 40.1875 -2.53125 C 40.570312 -3.820312 41.019531 -5.113281 41.53125 -6.40625 C 42.050781 -7.695312 42.570312 -9.1875 43.09375 -10.875 C 42.1875 -10.738281 41.375 -10.671875 40.65625 -10.671875 C 39.945312 -10.671875 39.269531 -10.539062 38.625 -10.28125 C 35.65625 -9.125 32.648438 -7.960938 29.609375 -6.796875 C 26.566406 -5.628906 23.554688 -4.460938 20.578125 -3.296875 C 18.640625 -2.648438 16.765625 -2.457031 14.953125 -2.71875 C 13.140625 -2.976562 11.390625 -3.816406 9.703125 -5.234375 C 9.441406 -6.535156 9.664062 -7.570312 10.375 -8.34375 C 11.09375 -9.125 11.90625 -9.707031 12.8125 -10.09375 C 15.65625 -11.78125 18.46875 -13.429688 21.25 -15.046875 C 24.039062 -16.660156 26.921875 -18.242188 29.890625 -19.796875 C 32.484375 -21.085938 35.140625 -22.347656 37.859375 -23.578125 C 40.578125 -24.816406 43.289062 -25.953125 46 -26.984375 C 47.945312 -27.753906 49.535156 -28.785156 50.765625 -30.078125 C 51.992188 -31.378906 52.992188 -32.9375 53.765625 -34.75 C 57.128906 -42 60.554688 -49.242188 64.046875 -56.484375 C 67.546875 -63.734375 70.976562 -70.914062 74.34375 -78.03125 C 82.238281 -94.34375 91.003906 -110.132812 100.640625 -125.40625 C 110.285156 -140.675781 120.738281 -155.363281 132 -169.46875 C 133.550781 -171.539062 135.234375 -173.578125 137.046875 -175.578125 C 138.859375 -177.585938 140.671875 -179.5 142.484375 -181.3125 C 145.203125 -184.15625 148.4375 -185.445312 152.1875 -185.1875 C 156.457031 -185.0625 158.59375 -182.863281 158.59375 -178.59375 C 158.59375 -174.582031 158.398438 -170.765625 158.015625 -167.140625 C 156.722656 -157.953125 155.425781 -148.726562 154.125 -139.46875 C 152.832031 -130.21875 151.609375 -121 150.453125 -111.8125 C 149.410156 -103.789062 148.40625 -95.734375 147.4375 -87.640625 C 146.46875 -79.554688 145.53125 -71.503906 144.625 -63.484375 Z M 145.40625 -168.5 C 142.164062 -165.257812 138.210938 -160.335938 133.546875 -153.734375 C 128.890625 -147.140625 123.875 -139.570312 118.5 -131.03125 C 113.132812 -122.488281 107.765625 -113.554688 102.390625 -104.234375 C 97.023438 -94.921875 92.015625 -85.894531 87.359375 -77.15625 C 82.703125 -68.425781 78.753906 -60.535156 75.515625 -53.484375 C 72.273438 -46.429688 70.140625 -40.898438 69.109375 -36.890625 C 74.148438 -38.566406 79.128906 -40.179688 84.046875 -41.734375 C 88.972656 -43.285156 93.894531 -44.773438 98.8125 -46.203125 C 103.726562 -47.753906 108.675781 -49.175781 113.65625 -50.46875 C 118.644531 -51.757812 123.597656 -53.25 128.515625 -54.9375 C 129.160156 -59.851562 129.773438 -64.671875 130.359375 -69.390625 C 130.941406 -74.117188 131.554688 -78.878906 132.203125 -83.671875 C 132.847656 -88.328125 133.523438 -92.984375 134.234375 -97.640625 C 134.953125 -102.304688 135.632812 -106.96875 136.28125 -111.625 C 137.050781 -116.40625 137.820312 -121.222656 138.59375 -126.078125 C 139.375 -130.929688 140.15625 -135.753906 140.9375 -140.546875 C 141.582031 -145.078125 142.390625 -149.601562 143.359375 -154.125 C 144.328125 -158.65625 145.007812 -163.445312 145.40625 -168.5 Z M 145.40625 -168.5 "/></g></g></g><g fill="#2b2d42" fill-opacity="1"><g transform="translate(355.773989, 238.289788)"><g/></g></g><g fill="#2b2d42" fill-opacity="1"><g transform="translate(14.914089, 313.15147)"><g><path d="M 213.09375 -19.3125 C 214.84375 -20.40625 216.207031 -20.296875 217.1875 -18.984375 C 218.175781 -17.671875 218.125 -16.363281 217.03125 -15.0625 C 210.257812 -8.945312 203 -4.851562 195.25 -2.78125 C 187.507812 -0.707031 179.054688 0.109375 169.890625 -0.328125 C 156.578125 -0.765625 145.828125 -3.546875 137.640625 -8.671875 C 129.460938 -13.796875 124.609375 -22.800781 123.078125 -35.6875 C 121.335938 -52.488281 118.609375 -65.46875 114.890625 -74.625 C 111.179688 -83.789062 107.144531 -90.117188 102.78125 -93.609375 C 98.414062 -97.109375 94.320312 -98.363281 90.5 -97.375 C 86.6875 -96.394531 83.691406 -93.941406 81.515625 -90.015625 L 82.15625 -15.0625 L 105.078125 -5.234375 L 105.078125 0.328125 C 105.078125 0.328125 102.785156 0.269531 98.203125 0.15625 C 93.617188 0.0507812 87.453125 0 79.703125 0 C 71.960938 0 63.398438 0 54.015625 0 C 39.828125 0 27.710938 0.0507812 17.671875 0.15625 C 7.640625 0.269531 2.625 0.328125 2.625 0.328125 L 2.625 -5.234375 L 26.515625 -15.0625 L 26.1875 -202.953125 C 26.1875 -207.097656 26.347656 -211.460938 26.671875 -216.046875 C 27.003906 -220.628906 27.171875 -222.921875 27.171875 -222.921875 L 2.296875 -233.390625 L 2.296875 -237.984375 C 2.296875 -237.984375 4.585938 -237.984375 9.171875 -237.984375 C 13.753906 -237.984375 19.804688 -237.984375 27.328125 -237.984375 C 34.859375 -237.984375 43.097656 -237.984375 52.046875 -237.984375 C 60.992188 -237.984375 70.050781 -237.984375 79.21875 -237.984375 C 88.382812 -237.984375 96.675781 -237.984375 104.09375 -237.984375 C 116.53125 -237.765625 128.203125 -237.160156 139.109375 -236.171875 C 150.023438 -235.191406 159.738281 -233.066406 168.25 -229.796875 C 176.757812 -226.523438 183.632812 -221.285156 188.875 -214.078125 C 194.113281 -206.878906 197.390625 -197.0625 198.703125 -184.625 C 199.566406 -174.582031 197.867188 -166.234375 193.609375 -159.578125 C 189.359375 -152.921875 183.46875 -147.351562 175.9375 -142.875 C 168.414062 -138.40625 160.070312 -134.425781 150.90625 -130.9375 C 141.738281 -127.445312 132.570312 -123.953125 123.40625 -120.453125 C 114.238281 -116.960938 105.945312 -112.710938 98.53125 -107.703125 C 112.28125 -110.316406 123.953125 -110.476562 133.546875 -108.1875 C 143.148438 -105.894531 151.113281 -101.910156 157.4375 -96.234375 C 163.769531 -90.566406 168.957031 -84.078125 173 -76.765625 C 177.039062 -69.453125 180.3125 -62.03125 182.8125 -54.5 C 185.320312 -46.96875 187.503906 -40.144531 189.359375 -34.03125 C 191.222656 -27.925781 193.132812 -23.347656 195.09375 -20.296875 C 196.84375 -17.460938 199.570312 -15.878906 203.28125 -15.546875 C 206.988281 -15.222656 210.257812 -16.476562 213.09375 -19.3125 Z M 102.125 -232.734375 C 96.457031 -232.515625 91.601562 -229.953125 87.5625 -225.046875 C 83.53125 -220.140625 81.515625 -212.773438 81.515625 -202.953125 L 81.515625 -102.453125 C 88.054688 -109.660156 94.328125 -115.554688 100.328125 -120.140625 C 106.328125 -124.722656 111.890625 -128.757812 117.015625 -132.25 C 122.148438 -135.738281 126.679688 -139.390625 130.609375 -143.203125 C 134.535156 -147.023438 137.753906 -151.71875 140.265625 -157.28125 C 142.773438 -162.851562 144.359375 -170.113281 145.015625 -179.0625 C 145.890625 -189.75 144.035156 -199.238281 139.453125 -207.53125 C 134.867188 -215.820312 129.140625 -222.203125 122.265625 -226.671875 C 115.390625 -231.148438 108.675781 -233.171875 102.125 -232.734375 Z M 102.125 -232.734375 "/></g></g></g></svg>